<svg width="160" height="73" viewBox="0 0 160 73" fill="none" xmlns="http://www.w3.org/2000/svg">
<g filter="url(#filter0_d_1_300)">
<path d="M4 34C4 22.799 4 17.1984 6.17987 12.9202C8.09734 9.15695 11.1569 6.09734 14.9202 4.17987C19.1984 2 24.799 2 36 2H124C135.201 2 140.802 2 145.08 4.17987C148.843 6.09734 151.903 9.15695 153.82 12.9202C156 17.1984 156 22.799 156 34C156 45.201 156 50.8016 153.82 55.0798C151.903 58.843 148.843 61.9027 145.08 63.8201C140.802 66 135.201 66 124 66H36C24.7989 66 19.1984 66 14.9202 63.8201C11.1569 61.9027 8.09734 58.843 6.17987 55.0798C4 50.8016 4 45.201 4 34Z" fill="#A0F9C2"/>
</g>
<path d="M4 40.4H13.3933L4 44.9714L10.618 47.4095L4 50.4572V44.9714V40.4Z" fill="#06421C"/>
<path d="M148.442 17.0509L155.797 18.3733L151.142 22.5004L143.618 22.6395L148.442 17.0509Z" fill="#06421C"/>
<g filter="url(#filter1_d_1_300)">
<rect x="8" y="6" width="144" height="56" rx="20" fill="#EBFFF2"/>
</g>
<g opacity="0.3" filter="url(#filter2_f_1_300)">
<path d="M150.4 38.7061C150.4 49.7517 141.445 58.7061 130.4 58.7061H29.6C18.5543 58.7061 9.59998 49.7517 9.59998 38.7061V33.2725C10.6752 43.3043 19.1674 51.1162 29.4847 51.1162H130.515C140.832 51.1162 149.325 43.3043 150.4 33.2725V38.7061Z" fill="#2C485F"/>
</g>
<g filter="url(#filter3_f_1_300)">
<path d="M128.165 8.85107C139.211 8.85117 148.165 17.8054 148.165 28.8511V32.146C148.165 21.1004 139.211 12.1461 128.165 12.146H31.8351C20.7894 12.146 11.8351 21.1003 11.8351 32.146V28.8511C11.8351 17.8054 20.7894 8.85107 31.8351 8.85107H128.165Z" fill="#A3ACB4"/>
</g>
<ellipse opacity="0.8" cx="1.63703" cy="2.59708" rx="1.63703" ry="2.59708" transform="matrix(0.346915 0.937897 -0.925644 0.378396 28.0214 14.1906)" fill="#152C40"/>
<ellipse opacity="0.5" cx="1.63703" cy="1.68256" rx="1.63703" ry="1.68256" transform="matrix(0.346915 0.937897 -0.925644 0.378396 23.3396 20.2857)" fill="#152C40"/>
<path d="M42.0474 40.128C41.194 40.128 40.4047 39.9893 39.6794 39.712C38.9647 39.424 38.3407 39.024 37.8074 38.512C37.2847 37.9893 36.874 37.3813 36.5754 36.688C36.2767 35.9947 36.1274 35.232 36.1274 34.4C36.1274 33.568 36.2767 32.8053 36.5754 32.112C36.874 31.4187 37.29 30.816 37.8234 30.304C38.3567 29.7813 38.9807 29.3813 39.6954 29.104C40.4207 28.816 41.21 28.672 42.0634 28.672C42.9274 28.672 43.722 28.8213 44.4474 29.12C45.1834 29.408 45.8074 29.84 46.3194 30.416L45.2794 31.424C44.8527 30.976 44.3727 30.6453 43.8394 30.432C43.306 30.208 42.7354 30.096 42.1274 30.096C41.498 30.096 40.9114 30.2027 40.3674 30.416C39.834 30.6293 39.37 30.928 38.9754 31.312C38.5807 31.696 38.2714 32.1547 38.0474 32.688C37.834 33.2107 37.7274 33.7813 37.7274 34.4C37.7274 35.0187 37.834 35.5947 38.0474 36.128C38.2714 36.6507 38.5807 37.104 38.9754 37.488C39.37 37.872 39.834 38.1707 40.3674 38.384C40.9114 38.5973 41.498 38.704 42.1274 38.704C42.7354 38.704 43.306 38.5973 43.8394 38.384C44.3727 38.16 44.8527 37.8187 45.2794 37.36L46.3194 38.368C45.8074 38.944 45.1834 39.3813 44.4474 39.68C43.722 39.9787 42.922 40.128 42.0474 40.128ZM51.6505 40.096C50.7972 40.096 50.0398 39.9093 49.3785 39.536C48.7172 39.1627 48.1945 38.6507 47.8105 38C47.4265 37.3387 47.2345 36.592 47.2345 35.76C47.2345 34.9173 47.4265 34.1707 47.8105 33.52C48.1945 32.8693 48.7172 32.3627 49.3785 32C50.0398 31.6267 50.7972 31.44 51.6505 31.44C52.4932 31.44 53.2452 31.6267 53.9065 32C54.5785 32.3627 55.1012 32.8693 55.4745 33.52C55.8585 34.16 56.0505 34.9067 56.0505 35.76C56.0505 36.6027 55.8585 37.3493 55.4745 38C55.1012 38.6507 54.5785 39.1627 53.9065 39.536C53.2452 39.9093 52.4932 40.096 51.6505 40.096ZM51.6505 38.752C52.1945 38.752 52.6798 38.6293 53.1065 38.384C53.5438 38.1387 53.8852 37.792 54.1305 37.344C54.3758 36.8853 54.4985 36.3573 54.4985 35.76C54.4985 35.152 54.3758 34.6293 54.1305 34.192C53.8852 33.744 53.5438 33.3973 53.1065 33.152C52.6798 32.9067 52.1945 32.784 51.6505 32.784C51.1065 32.784 50.6212 32.9067 50.1945 33.152C49.7678 33.3973 49.4265 33.744 49.1705 34.192C48.9145 34.6293 48.7865 35.152 48.7865 35.76C48.7865 36.3573 48.9145 36.8853 49.1705 37.344C49.4265 37.792 49.7678 38.1387 50.1945 38.384C50.6212 38.6293 51.1065 38.752 51.6505 38.752ZM62.7028 31.44C63.3961 31.44 64.0041 31.5733 64.5268 31.84C65.0601 32.1067 65.4761 32.512 65.7748 33.056C66.0734 33.6 66.2228 34.288 66.2228 35.12V40H64.6868V35.296C64.6868 34.4747 64.4841 33.856 64.0788 33.44C63.6841 33.024 63.1241 32.816 62.3988 32.816C61.8548 32.816 61.3801 32.9227 60.9748 33.136C60.5694 33.3493 60.2548 33.664 60.0308 34.08C59.8174 34.496 59.7108 35.0133 59.7108 35.632V40H58.1748V31.52H59.6468V33.808L59.4068 33.2C59.6841 32.6453 60.1108 32.2133 60.6868 31.904C61.2628 31.5947 61.9348 31.44 62.7028 31.44ZM71.9774 40.096C71.124 40.096 70.4627 39.8667 69.9934 39.408C69.524 38.9493 69.2894 38.2933 69.2894 37.44V29.664H70.8254V37.376C70.8254 37.8347 70.9374 38.1867 71.1614 38.432C71.396 38.6773 71.7267 38.8 72.1534 38.8C72.6334 38.8 73.0334 38.6667 73.3534 38.4L73.8334 39.504C73.5987 39.7067 73.316 39.856 72.9854 39.952C72.6654 40.048 72.3294 40.096 71.9774 40.096ZM67.8494 32.784V31.52H73.2574V32.784H67.8494ZM80.9544 40V38.208L80.8744 37.872V34.816C80.8744 34.1653 80.6824 33.664 80.2984 33.312C79.925 32.9493 79.3597 32.768 78.6024 32.768C78.101 32.768 77.6104 32.8533 77.1304 33.024C76.6504 33.184 76.245 33.4027 75.9144 33.68L75.2744 32.528C75.7117 32.176 76.2344 31.9093 76.8424 31.728C77.461 31.536 78.1064 31.44 78.7784 31.44C79.941 31.44 80.837 31.7227 81.4664 32.288C82.0957 32.8533 82.4104 33.7173 82.4104 34.88V40H80.9544ZM78.1704 40.096C77.541 40.096 76.9864 39.9893 76.5064 39.776C76.037 39.5627 75.6744 39.2693 75.4184 38.896C75.1624 38.512 75.0344 38.08 75.0344 37.6C75.0344 37.1413 75.141 36.7253 75.3544 36.352C75.5784 35.9787 75.9357 35.68 76.4264 35.456C76.9277 35.232 77.5997 35.12 78.4424 35.12H81.1304V36.224H78.5064C77.7384 36.224 77.221 36.352 76.9544 36.608C76.6877 36.864 76.5544 37.1733 76.5544 37.536C76.5544 37.952 76.7197 38.288 77.0504 38.544C77.381 38.7893 77.8397 38.912 78.4264 38.912C79.0024 38.912 79.5037 38.784 79.9304 38.528C80.3677 38.272 80.6824 37.8987 80.8744 37.408L81.1784 38.464C80.9757 38.9653 80.6184 39.3653 80.1064 39.664C79.5944 39.952 78.949 40.096 78.1704 40.096ZM88.9489 40.096C88.0849 40.096 87.3115 39.9093 86.6289 39.536C85.9569 39.1627 85.4289 38.6507 85.0449 38C84.6609 37.3493 84.4689 36.6027 84.4689 35.76C84.4689 34.9173 84.6609 34.1707 85.0449 33.52C85.4289 32.8693 85.9569 32.3627 86.6289 32C87.3115 31.6267 88.0849 31.44 88.9489 31.44C89.7169 31.44 90.3995 31.5947 90.9969 31.904C91.6049 32.2027 92.0742 32.6507 92.4049 33.248L91.2369 34C90.9595 33.584 90.6182 33.28 90.2129 33.088C89.8182 32.8853 89.3915 32.784 88.9329 32.784C88.3782 32.784 87.8822 32.9067 87.4449 33.152C87.0075 33.3973 86.6609 33.744 86.4049 34.192C86.1489 34.6293 86.0209 35.152 86.0209 35.76C86.0209 36.368 86.1489 36.896 86.4049 37.344C86.6609 37.792 87.0075 38.1387 87.4449 38.384C87.8822 38.6293 88.3782 38.752 88.9329 38.752C89.3915 38.752 89.8182 38.656 90.2129 38.464C90.6182 38.2613 90.9595 37.952 91.2369 37.536L92.4049 38.272C92.0742 38.8587 91.6049 39.312 90.9969 39.632C90.3995 39.9413 89.7169 40.096 88.9489 40.096ZM97.4149 40.096C96.5615 40.096 95.9002 39.8667 95.4309 39.408C94.9615 38.9493 94.7269 38.2933 94.7269 37.44V29.664H96.2629V37.376C96.2629 37.8347 96.3749 38.1867 96.5989 38.432C96.8335 38.6773 97.1642 38.8 97.5909 38.8C98.0709 38.8 98.4709 38.6667 98.7909 38.4L99.2709 39.504C99.0362 39.7067 98.7535 39.856 98.4229 39.952C98.1029 40.048 97.7669 40.096 97.4149 40.096ZM93.2869 32.784V31.52H98.6949V32.784H93.2869ZM110.289 40.128C108.817 40.128 107.659 39.7067 106.817 38.864C105.974 38.0213 105.553 36.7893 105.553 35.168V28.8H107.153V35.104C107.153 36.352 107.425 37.264 107.969 37.84C108.523 38.416 109.302 38.704 110.305 38.704C111.318 38.704 112.097 38.416 112.641 37.84C113.195 37.264 113.473 36.352 113.473 35.104V28.8H115.025V35.168C115.025 36.7893 114.603 38.0213 113.761 38.864C112.929 39.7067 111.771 40.128 110.289 40.128ZM120.513 40.096C119.809 40.096 119.137 40 118.497 39.808C117.868 39.616 117.372 39.3813 117.009 39.104L117.649 37.888C118.012 38.1333 118.46 38.3413 118.993 38.512C119.526 38.6827 120.07 38.768 120.625 38.768C121.34 38.768 121.852 38.6667 122.161 38.464C122.481 38.2613 122.641 37.9787 122.641 37.616C122.641 37.3493 122.545 37.1413 122.353 36.992C122.161 36.8427 121.905 36.7307 121.585 36.656C121.276 36.5813 120.929 36.5173 120.545 36.464C120.161 36.4 119.777 36.3253 119.393 36.24C119.009 36.144 118.657 36.016 118.337 35.856C118.017 35.6853 117.761 35.456 117.569 35.168C117.377 34.8693 117.281 34.4747 117.281 33.984C117.281 33.472 117.425 33.024 117.713 32.64C118.001 32.256 118.406 31.9627 118.929 31.76C119.462 31.5467 120.092 31.44 120.817 31.44C121.372 31.44 121.932 31.5093 122.497 31.648C123.073 31.776 123.542 31.9627 123.905 32.208L123.249 33.424C122.865 33.168 122.465 32.992 122.049 32.896C121.633 32.8 121.217 32.752 120.801 32.752C120.129 32.752 119.628 32.864 119.297 33.088C118.966 33.3013 118.801 33.5787 118.801 33.92C118.801 34.208 118.897 34.432 119.089 34.592C119.292 34.7413 119.548 34.8587 119.857 34.944C120.177 35.0293 120.529 35.104 120.913 35.168C121.297 35.2213 121.681 35.296 122.065 35.392C122.449 35.4773 122.796 35.6 123.105 35.76C123.425 35.92 123.681 36.144 123.873 36.432C124.076 36.72 124.177 37.104 124.177 37.584C124.177 38.096 124.028 38.5387 123.729 38.912C123.43 39.2853 123.009 39.5787 122.465 39.792C121.921 39.9947 121.27 40.096 120.513 40.096Z" fill="#0C5D2A"/>
<defs>
<filter id="filter0_d_1_300" x="0" y="0" width="160" height="72" filterUnits="userSpaceOnUse" color-interpolation-filters="sRGB">
<feFlood flood-opacity="0" result="BackgroundImageFix"/>
<feColorMatrix in="SourceAlpha" type="matrix" values="0 0 0 0 0 0 0 0 0 0 0 0 0 0 0 0 0 0 127 0" result="hardAlpha"/>
<feOffset dy="2"/>
<feGaussianBlur stdDeviation="2"/>
<feComposite in2="hardAlpha" operator="out"/>
<feColorMatrix type="matrix" values="0 0 0 0 0 0 0 0 0 0 0 0 0 0 0 0 0 0 0.2 0"/>
<feBlend mode="normal" in2="BackgroundImageFix" result="effect1_dropShadow_1_300"/>
<feBlend mode="normal" in="SourceGraphic" in2="effect1_dropShadow_1_300" result="shape"/>
</filter>
<filter id="filter1_d_1_300" x="4" y="6" width="152" height="67" filterUnits="userSpaceOnUse" color-interpolation-filters="sRGB">
<feFlood flood-opacity="0" result="BackgroundImageFix"/>
<feColorMatrix in="SourceAlpha" type="matrix" values="0 0 0 0 0 0 0 0 0 0 0 0 0 0 0 0 0 0 127 0" result="hardAlpha"/>
<feOffset dy="7"/>
<feGaussianBlur stdDeviation="2"/>
<feComposite in2="hardAlpha" operator="out"/>
<feColorMatrix type="matrix" values="0 0 0 0 0 0 0 0 0 0 0 0 0 0 0 0 0 0 0.2 0"/>
<feBlend mode="normal" in2="BackgroundImageFix" result="effect1_dropShadow_1_300"/>
<feBlend mode="normal" in="SourceGraphic" in2="effect1_dropShadow_1_300" result="shape"/>
</filter>
<filter id="filter2_f_1_300" x="1.59998" y="25.2725" width="156.8" height="41.4336" filterUnits="userSpaceOnUse" color-interpolation-filters="sRGB">
<feFlood flood-opacity="0" result="BackgroundImageFix"/>
<feBlend mode="normal" in="SourceGraphic" in2="BackgroundImageFix" result="shape"/>
<feGaussianBlur stdDeviation="4" result="effect1_foregroundBlur_1_300"/>
</filter>
<filter id="filter3_f_1_300" x="5.83508" y="2.85107" width="148.33" height="35.2949" filterUnits="userSpaceOnUse" color-interpolation-filters="sRGB">
<feFlood flood-opacity="0" result="BackgroundImageFix"/>
<feBlend mode="normal" in="SourceGraphic" in2="BackgroundImageFix" result="shape"/>
<feGaussianBlur stdDeviation="3" result="effect1_foregroundBlur_1_300"/>
</filter>
</defs>
</svg>
