<svg width="380" height="88" viewBox="0 0 380 88" fill="none" xmlns="http://www.w3.org/2000/svg">
<g filter="url(#filter0_d_1_25)">
<path d="M4 42C4 23.1438 4 13.7157 9.85786 7.85786C15.7157 2 25.1438 2 44 2H336C354.856 2 364.284 2 370.142 7.85786C376 13.7157 376 23.1438 376 42V42C376 60.8562 376 70.2843 370.142 76.1421C364.284 82 354.856 82 336 82H44C25.1438 82 15.7157 82 9.85786 76.1421C4 70.2843 4 60.8562 4 42V42Z" fill="#0C5D2A"/>
</g>
<path d="M4 50H26.9888L4 55.7143L20.1966 58.7619L4 62.5714V55.7143V50Z" fill="#06421C"/>
<path d="M357.502 20.8137L375.504 22.4666L364.112 27.6254L345.697 27.7993L357.502 20.8137Z" fill="#06421C"/>
<g filter="url(#filter1_d_1_25)">
<rect x="12" y="10" width="356" height="64" rx="20" fill="#3AB769"/>
</g>
<g opacity="0.3" filter="url(#filter2_f_1_25)">
<path d="M364 51.0854C364 62.1309 355.045 71.0853 344 71.0854H36C24.9545 71.0854 16.0002 62.1309 16 51.0854V44.9741C17.6046 54.412 25.8199 61.5981 35.7148 61.5981H344.285C354.18 61.598 362.395 54.4119 364 44.9741V51.0854Z" fill="#0A2B59"/>
</g>
<g filter="url(#filter3_f_1_25)">
<path d="M340 13.5635C351.045 13.5637 360 22.518 360 33.5635V37.6816C360 26.6363 351.045 17.6819 340 17.6816H39.999C28.9537 17.6819 19.9992 26.6363 19.999 37.6816V33.5635C19.9991 22.518 28.9536 13.5637 39.999 13.5635H340Z" fill="#F9FCFF"/>
</g>
<ellipse opacity="0.8" cx="2.36963" cy="6.01028" rx="2.36963" ry="6.01028" transform="matrix(0.586542 0.809919 -0.978891 0.204384 61.7893 23.2383)" fill="white"/>
<ellipse opacity="0.5" cx="2.36963" cy="3.89386" rx="2.36963" ry="3.89386" transform="matrix(0.586542 0.809919 -0.978891 0.204384 50.3312 30.8572)" fill="white"/>
<path d="M140.272 48V35.4H142.072V46.434H148.894V48H140.272ZM154.832 48.108C153.812 48.108 152.912 47.898 152.132 47.478C151.364 47.058 150.764 46.482 150.332 45.75C149.912 45.018 149.702 44.178 149.702 43.23C149.702 42.282 149.906 41.442 150.314 40.71C150.734 39.978 151.304 39.408 152.024 39C152.756 38.58 153.578 38.37 154.49 38.37C155.414 38.37 156.23 38.574 156.938 38.982C157.646 39.39 158.198 39.966 158.594 40.71C159.002 41.442 159.206 42.3 159.206 43.284C159.206 43.356 159.2 43.44 159.188 43.536C159.188 43.632 159.182 43.722 159.17 43.806H151.052V42.564H158.27L157.568 42.996C157.58 42.384 157.454 41.838 157.19 41.358C156.926 40.878 156.56 40.506 156.092 40.242C155.636 39.966 155.102 39.828 154.49 39.828C153.89 39.828 153.356 39.966 152.888 40.242C152.42 40.506 152.054 40.884 151.79 41.376C151.526 41.856 151.394 42.408 151.394 43.032V43.32C151.394 43.956 151.538 44.526 151.826 45.03C152.126 45.522 152.54 45.906 153.068 46.182C153.596 46.458 154.202 46.596 154.886 46.596C155.45 46.596 155.96 46.5 156.416 46.308C156.884 46.116 157.292 45.828 157.64 45.444L158.594 46.56C158.162 47.064 157.622 47.448 156.974 47.712C156.338 47.976 155.624 48.108 154.832 48.108ZM167.264 48V45.984L167.174 45.606V42.168C167.174 41.436 166.958 40.872 166.526 40.476C166.106 40.068 165.47 39.864 164.618 39.864C164.054 39.864 163.502 39.96 162.962 40.152C162.422 40.332 161.966 40.578 161.594 40.89L160.874 39.594C161.366 39.198 161.954 38.898 162.638 38.694C163.334 38.478 164.06 38.37 164.816 38.37C166.124 38.37 167.132 38.688 167.84 39.324C168.548 39.96 168.902 40.932 168.902 42.24V48H167.264ZM164.132 48.108C163.424 48.108 162.8 47.988 162.26 47.748C161.732 47.508 161.324 47.178 161.036 46.758C160.748 46.326 160.604 45.84 160.604 45.3C160.604 44.784 160.724 44.316 160.964 43.896C161.216 43.476 161.618 43.14 162.17 42.888C162.734 42.636 163.49 42.51 164.438 42.51H167.462V43.752H164.51C163.646 43.752 163.064 43.896 162.764 44.184C162.464 44.472 162.314 44.82 162.314 45.228C162.314 45.696 162.5 46.074 162.872 46.362C163.244 46.638 163.76 46.776 164.42 46.776C165.068 46.776 165.632 46.632 166.112 46.344C166.604 46.056 166.958 45.636 167.174 45.084L167.516 46.272C167.288 46.836 166.886 47.286 166.31 47.622C165.734 47.946 165.008 48.108 164.132 48.108ZM172.1 48V38.46H173.756V41.052L173.594 40.404C173.858 39.744 174.302 39.24 174.926 38.892C175.55 38.544 176.318 38.37 177.23 38.37V40.044C177.158 40.032 177.086 40.026 177.014 40.026C176.954 40.026 176.894 40.026 176.834 40.026C175.91 40.026 175.178 40.302 174.638 40.854C174.098 41.406 173.828 42.204 173.828 43.248V48H172.1ZM184.454 38.37C185.234 38.37 185.918 38.52 186.506 38.82C187.106 39.12 187.574 39.576 187.91 40.188C188.246 40.8 188.414 41.574 188.414 42.51V48H186.686V42.708C186.686 41.784 186.458 41.088 186.002 40.62C185.558 40.152 184.928 39.918 184.112 39.918C183.5 39.918 182.966 40.038 182.51 40.278C182.054 40.518 181.7 40.872 181.448 41.34C181.208 41.808 181.088 42.39 181.088 43.086V48H179.36V38.46H181.016V41.034L180.746 40.35C181.058 39.726 181.538 39.24 182.186 38.892C182.834 38.544 183.59 38.37 184.454 38.37ZM196.698 48V35.4H198.174L203.826 44.922H203.034L208.614 35.4H210.09L210.108 48H208.38L208.362 38.118H208.776L203.808 46.47H202.98L197.976 38.118H198.426V48H196.698ZM217.723 48.108C216.763 48.108 215.911 47.898 215.167 47.478C214.423 47.058 213.835 46.482 213.403 45.75C212.971 45.006 212.755 44.166 212.755 43.23C212.755 42.282 212.971 41.442 213.403 40.71C213.835 39.978 214.423 39.408 215.167 39C215.911 38.58 216.763 38.37 217.723 38.37C218.671 38.37 219.517 38.58 220.261 39C221.017 39.408 221.605 39.978 222.025 40.71C222.457 41.43 222.673 42.27 222.673 43.23C222.673 44.178 222.457 45.018 222.025 45.75C221.605 46.482 221.017 47.058 220.261 47.478C219.517 47.898 218.671 48.108 217.723 48.108ZM217.723 46.596C218.335 46.596 218.881 46.458 219.361 46.182C219.853 45.906 220.237 45.516 220.513 45.012C220.789 44.496 220.927 43.902 220.927 43.23C220.927 42.546 220.789 41.958 220.513 41.466C220.237 40.962 219.853 40.572 219.361 40.296C218.881 40.02 218.335 39.882 217.723 39.882C217.111 39.882 216.565 40.02 216.085 40.296C215.605 40.572 215.221 40.962 214.933 41.466C214.645 41.958 214.501 42.546 214.501 43.23C214.501 43.902 214.645 44.496 214.933 45.012C215.221 45.516 215.605 45.906 216.085 46.182C216.565 46.458 217.111 46.596 217.723 46.596ZM225.063 48V38.46H226.719V41.052L226.557 40.404C226.821 39.744 227.265 39.24 227.889 38.892C228.513 38.544 229.281 38.37 230.193 38.37V40.044C230.121 40.032 230.049 40.026 229.977 40.026C229.917 40.026 229.857 40.026 229.797 40.026C228.873 40.026 228.141 40.302 227.601 40.854C227.061 41.406 226.791 42.204 226.791 43.248V48H225.063ZM236.483 48.108C235.463 48.108 234.563 47.898 233.783 47.478C233.015 47.058 232.415 46.482 231.983 45.75C231.563 45.018 231.353 44.178 231.353 43.23C231.353 42.282 231.557 41.442 231.965 40.71C232.385 39.978 232.955 39.408 233.675 39C234.407 38.58 235.229 38.37 236.141 38.37C237.065 38.37 237.881 38.574 238.589 38.982C239.297 39.39 239.849 39.966 240.245 40.71C240.653 41.442 240.857 42.3 240.857 43.284C240.857 43.356 240.851 43.44 240.839 43.536C240.839 43.632 240.833 43.722 240.821 43.806H232.703V42.564H239.921L239.219 42.996C239.231 42.384 239.105 41.838 238.841 41.358C238.577 40.878 238.211 40.506 237.743 40.242C237.287 39.966 236.753 39.828 236.141 39.828C235.541 39.828 235.007 39.966 234.539 40.242C234.071 40.506 233.705 40.884 233.441 41.376C233.177 41.856 233.045 42.408 233.045 43.032V43.32C233.045 43.956 233.189 44.526 233.477 45.03C233.777 45.522 234.191 45.906 234.719 46.182C235.247 46.458 235.853 46.596 236.537 46.596C237.101 46.596 237.611 46.5 238.067 46.308C238.535 46.116 238.943 45.828 239.291 45.444L240.245 46.56C239.813 47.064 239.273 47.448 238.625 47.712C237.989 47.976 237.275 48.108 236.483 48.108Z" fill="#F9FCFF"/>
<defs>
<filter id="filter0_d_1_25" x="0" y="0" width="380" height="88" filterUnits="userSpaceOnUse" color-interpolation-filters="sRGB">
<feFlood flood-opacity="0" result="BackgroundImageFix"/>
<feColorMatrix in="SourceAlpha" type="matrix" values="0 0 0 0 0 0 0 0 0 0 0 0 0 0 0 0 0 0 127 0" result="hardAlpha"/>
<feOffset dy="2"/>
<feGaussianBlur stdDeviation="2"/>
<feComposite in2="hardAlpha" operator="out"/>
<feColorMatrix type="matrix" values="0 0 0 0 0 0 0 0 0 0 0 0 0 0 0 0 0 0 0.2 0"/>
<feBlend mode="normal" in2="BackgroundImageFix" result="effect1_dropShadow_1_25"/>
<feBlend mode="normal" in="SourceGraphic" in2="effect1_dropShadow_1_25" result="shape"/>
</filter>
<filter id="filter1_d_1_25" x="8" y="10" width="364" height="75" filterUnits="userSpaceOnUse" color-interpolation-filters="sRGB">
<feFlood flood-opacity="0" result="BackgroundImageFix"/>
<feColorMatrix in="SourceAlpha" type="matrix" values="0 0 0 0 0 0 0 0 0 0 0 0 0 0 0 0 0 0 127 0" result="hardAlpha"/>
<feOffset dy="7"/>
<feGaussianBlur stdDeviation="2"/>
<feComposite in2="hardAlpha" operator="out"/>
<feColorMatrix type="matrix" values="0 0 0 0 0 0 0 0 0 0 0 0 0 0 0 0 0 0 0.2 0"/>
<feBlend mode="normal" in2="BackgroundImageFix" result="effect1_dropShadow_1_25"/>
<feBlend mode="normal" in="SourceGraphic" in2="effect1_dropShadow_1_25" result="shape"/>
</filter>
<filter id="filter2_f_1_25" x="8" y="36.9741" width="364" height="42.1113" filterUnits="userSpaceOnUse" color-interpolation-filters="sRGB">
<feFlood flood-opacity="0" result="BackgroundImageFix"/>
<feBlend mode="normal" in="SourceGraphic" in2="BackgroundImageFix" result="shape"/>
<feGaussianBlur stdDeviation="4" result="effect1_foregroundBlur_1_25"/>
</filter>
<filter id="filter3_f_1_25" x="13.999" y="7.56348" width="352.001" height="36.1182" filterUnits="userSpaceOnUse" color-interpolation-filters="sRGB">
<feFlood flood-opacity="0" result="BackgroundImageFix"/>
<feBlend mode="normal" in="SourceGraphic" in2="BackgroundImageFix" result="shape"/>
<feGaussianBlur stdDeviation="3" result="effect1_foregroundBlur_1_25"/>
</filter>
</defs>
</svg>
