<svg width="160" height="73" viewBox="0 0 160 73" fill="none" xmlns="http://www.w3.org/2000/svg">
<g filter="url(#filter0_d_1_175)">
<path d="M4 34C4 22.799 4 17.1984 6.17987 12.9202C8.09734 9.15695 11.1569 6.09734 14.9202 4.17987C19.1984 2 24.7989 2 36 2H124C135.201 2 140.802 2 145.08 4.17987C148.843 6.09734 151.903 9.15695 153.82 12.9202C156 17.1984 156 22.799 156 34V34C156 45.201 156 50.8016 153.82 55.0798C151.903 58.843 148.843 61.9027 145.08 63.8201C140.802 66 135.201 66 124 66H36C24.7989 66 19.1984 66 14.9202 63.8201C11.1569 61.9027 8.09734 58.843 6.17987 55.0798C4 50.8016 4 45.201 4 34V34Z" fill="#0C5D2A"/>
</g>
<path d="M4 40.4H13.3933L4 44.9714L10.618 47.4095L4 50.4572V44.9714V40.4Z" fill="#06421C"/>
<path d="M148.442 17.0509L155.797 18.3733L151.142 22.5004L143.618 22.6395L148.442 17.0509Z" fill="#06421C"/>
<g filter="url(#filter1_d_1_175)">
<rect x="8" y="6" width="144" height="56" rx="20" fill="#3AB769"/>
</g>
<g opacity="0.3" filter="url(#filter2_f_1_175)">
<path d="M150.4 38.7061C150.4 49.7517 141.445 58.7061 130.4 58.7061H29.6C18.5543 58.7061 9.59998 49.7517 9.59998 38.7061V33.2725C10.6752 43.3043 19.1674 51.1162 29.4847 51.1162H130.515C140.832 51.1162 149.325 43.3043 150.4 33.2725V38.7061Z" fill="#0A2B59"/>
</g>
<g filter="url(#filter3_f_1_175)">
<path d="M128.165 8.85107C139.211 8.85117 148.165 17.8054 148.165 28.8511V32.146C148.165 21.1004 139.211 12.1461 128.165 12.146H31.8351C20.7894 12.146 11.8351 21.1003 11.8351 32.146V28.8511C11.8351 17.8054 20.7894 8.85107 31.8351 8.85107H128.165Z" fill="#F9FCFF"/>
</g>
<ellipse opacity="0.8" cx="1.63703" cy="2.59708" rx="1.63703" ry="2.59708" transform="matrix(0.346915 0.937897 -0.925644 0.378396 28.0214 14.1906)" fill="white"/>
<ellipse opacity="0.5" cx="1.63703" cy="1.68256" rx="1.63703" ry="1.68256" transform="matrix(0.346915 0.937897 -0.925644 0.378396 23.3396 20.2857)" fill="white"/>
<path d="M58.7034 40V28.8H60.3034V38.608H66.3674V40H58.7034ZM71.5021 40.096C70.6487 40.096 69.8914 39.9093 69.2301 39.536C68.5687 39.1627 68.0461 38.6507 67.6621 38C67.2781 37.3387 67.0861 36.592 67.0861 35.76C67.0861 34.9173 67.2781 34.1707 67.6621 33.52C68.0461 32.8693 68.5687 32.3627 69.2301 32C69.8914 31.6267 70.6487 31.44 71.5021 31.44C72.3447 31.44 73.0967 31.6267 73.7581 32C74.4301 32.3627 74.9527 32.8693 75.3261 33.52C75.7101 34.16 75.9021 34.9067 75.9021 35.76C75.9021 36.6027 75.7101 37.3493 75.3261 38C74.9527 38.6507 74.4301 39.1627 73.7581 39.536C73.0967 39.9093 72.3447 40.096 71.5021 40.096ZM71.5021 38.752C72.0461 38.752 72.5314 38.6293 72.9581 38.384C73.3954 38.1387 73.7367 37.792 73.9821 37.344C74.2274 36.8853 74.3501 36.3573 74.3501 35.76C74.3501 35.152 74.2274 34.6293 73.9821 34.192C73.7367 33.744 73.3954 33.3973 72.9581 33.152C72.5314 32.9067 72.0461 32.784 71.5021 32.784C70.9581 32.784 70.4727 32.9067 70.0461 33.152C69.6194 33.3973 69.2781 33.744 69.0221 34.192C68.7661 34.6293 68.6381 35.152 68.6381 35.76C68.6381 36.3573 68.7661 36.8853 69.0221 37.344C69.2781 37.792 69.6194 38.1387 70.0461 38.384C70.4727 38.6293 70.9581 38.752 71.5021 38.752ZM81.7383 43.2C80.9596 43.2 80.2023 43.088 79.4663 42.864C78.741 42.6507 78.149 42.3413 77.6903 41.936L78.4263 40.752C78.821 41.0933 79.3063 41.36 79.8823 41.552C80.4583 41.7547 81.061 41.856 81.6903 41.856C82.693 41.856 83.429 41.6213 83.8983 41.152C84.3676 40.6827 84.6023 39.968 84.6023 39.008V37.216L84.7623 35.536L84.6823 33.84V31.52H86.1383V38.848C86.1383 40.3413 85.765 41.44 85.0183 42.144C84.2716 42.848 83.1783 43.2 81.7383 43.2ZM81.5463 39.648C80.725 39.648 79.989 39.4773 79.3383 39.136C78.6983 38.784 78.1863 38.2987 77.8023 37.68C77.429 37.0613 77.2423 36.3467 77.2423 35.536C77.2423 34.7147 77.429 34 77.8023 33.392C78.1863 32.7733 78.6983 32.2933 79.3383 31.952C79.989 31.6107 80.725 31.44 81.5463 31.44C82.2716 31.44 82.933 31.5893 83.5303 31.888C84.1276 32.176 84.6023 32.624 84.9543 33.232C85.317 33.84 85.4983 34.608 85.4983 35.536C85.4983 36.4533 85.317 37.216 84.9543 37.824C84.6023 38.432 84.1276 38.8907 83.5303 39.2C82.933 39.4987 82.2716 39.648 81.5463 39.648ZM81.7223 38.304C82.2876 38.304 82.789 38.1867 83.2263 37.952C83.6636 37.7173 84.005 37.392 84.2503 36.976C84.5063 36.56 84.6343 36.08 84.6343 35.536C84.6343 34.992 84.5063 34.512 84.2503 34.096C84.005 33.68 83.6636 33.36 83.2263 33.136C82.789 32.9013 82.2876 32.784 81.7223 32.784C81.157 32.784 80.6503 32.9013 80.2023 33.136C79.765 33.36 79.4183 33.68 79.1623 34.096C78.917 34.512 78.7943 34.992 78.7943 35.536C78.7943 36.08 78.917 36.56 79.1623 36.976C79.4183 37.392 79.765 37.7173 80.2023 37.952C80.6503 38.1867 81.157 38.304 81.7223 38.304ZM89.0732 40V31.52H90.6092V40H89.0732ZM89.8412 29.888C89.5425 29.888 89.2919 29.792 89.0892 29.6C88.8972 29.408 88.8012 29.1733 88.8012 28.896C88.8012 28.608 88.8972 28.368 89.0892 28.176C89.2919 27.984 89.5425 27.888 89.8412 27.888C90.1399 27.888 90.3852 27.984 90.5772 28.176C90.7799 28.3573 90.8812 28.5867 90.8812 28.864C90.8812 29.152 90.7852 29.3973 90.5932 29.6C90.4012 29.792 90.1505 29.888 89.8412 29.888ZM98.0699 31.44C98.7633 31.44 99.3713 31.5733 99.8939 31.84C100.427 32.1067 100.843 32.512 101.142 33.056C101.441 33.6 101.59 34.288 101.59 35.12V40H100.054V35.296C100.054 34.4747 99.8513 33.856 99.4459 33.44C99.0513 33.024 98.4913 32.816 97.7659 32.816C97.2219 32.816 96.7473 32.9227 96.3419 33.136C95.9366 33.3493 95.6219 33.664 95.3979 34.08C95.1846 34.496 95.0779 35.0133 95.0779 35.632V40H93.5419V31.52H95.0139V33.808L94.7739 33.2C95.0513 32.6453 95.4779 32.2133 96.0539 31.904C96.6299 31.5947 97.3019 31.44 98.0699 31.44Z" fill="#F9FCFF"/>
<defs>
<filter id="filter0_d_1_175" x="0" y="0" width="160" height="72" filterUnits="userSpaceOnUse" color-interpolation-filters="sRGB">
<feFlood flood-opacity="0" result="BackgroundImageFix"/>
<feColorMatrix in="SourceAlpha" type="matrix" values="0 0 0 0 0 0 0 0 0 0 0 0 0 0 0 0 0 0 127 0" result="hardAlpha"/>
<feOffset dy="2"/>
<feGaussianBlur stdDeviation="2"/>
<feComposite in2="hardAlpha" operator="out"/>
<feColorMatrix type="matrix" values="0 0 0 0 0 0 0 0 0 0 0 0 0 0 0 0 0 0 0.2 0"/>
<feBlend mode="normal" in2="BackgroundImageFix" result="effect1_dropShadow_1_175"/>
<feBlend mode="normal" in="SourceGraphic" in2="effect1_dropShadow_1_175" result="shape"/>
</filter>
<filter id="filter1_d_1_175" x="4" y="6" width="152" height="67" filterUnits="userSpaceOnUse" color-interpolation-filters="sRGB">
<feFlood flood-opacity="0" result="BackgroundImageFix"/>
<feColorMatrix in="SourceAlpha" type="matrix" values="0 0 0 0 0 0 0 0 0 0 0 0 0 0 0 0 0 0 127 0" result="hardAlpha"/>
<feOffset dy="7"/>
<feGaussianBlur stdDeviation="2"/>
<feComposite in2="hardAlpha" operator="out"/>
<feColorMatrix type="matrix" values="0 0 0 0 0 0 0 0 0 0 0 0 0 0 0 0 0 0 0.2 0"/>
<feBlend mode="normal" in2="BackgroundImageFix" result="effect1_dropShadow_1_175"/>
<feBlend mode="normal" in="SourceGraphic" in2="effect1_dropShadow_1_175" result="shape"/>
</filter>
<filter id="filter2_f_1_175" x="1.59998" y="25.2725" width="156.8" height="41.4336" filterUnits="userSpaceOnUse" color-interpolation-filters="sRGB">
<feFlood flood-opacity="0" result="BackgroundImageFix"/>
<feBlend mode="normal" in="SourceGraphic" in2="BackgroundImageFix" result="shape"/>
<feGaussianBlur stdDeviation="4" result="effect1_foregroundBlur_1_175"/>
</filter>
<filter id="filter3_f_1_175" x="5.83508" y="2.85107" width="148.33" height="35.2949" filterUnits="userSpaceOnUse" color-interpolation-filters="sRGB">
<feFlood flood-opacity="0" result="BackgroundImageFix"/>
<feBlend mode="normal" in="SourceGraphic" in2="BackgroundImageFix" result="shape"/>
<feGaussianBlur stdDeviation="3" result="effect1_foregroundBlur_1_175"/>
</filter>
</defs>
</svg>
