<svg width="32" height="32" viewBox="0 0 32 32" fill="none" xmlns="http://www.w3.org/2000/svg">
<path d="M14.6666 22.6666L17.3333 25.3333C17.5959 25.5959 17.9077 25.8042 18.2509 25.9464C18.5941 26.0885 18.9619 26.1617 19.3333 26.1617C19.7047 26.1617 20.0725 26.0885 20.4157 25.9464C20.7588 25.8042 21.0706 25.5959 21.3333 25.3333C21.5959 25.0706 21.8043 24.7588 21.9464 24.4156C22.0886 24.0725 22.1617 23.7047 22.1617 23.3333C22.1617 22.9618 22.0886 22.594 21.9464 22.2509C21.8043 21.9077 21.5959 21.5959 21.3333 21.3333" stroke="#3AB769" stroke-width="1.5" stroke-linecap="round" stroke-linejoin="round"/>
<path d="M18.6667 18.6666L22.0001 21.9999C22.5305 22.5304 23.2499 22.8284 24.0001 22.8284C24.7502 22.8284 25.4696 22.5304 26.0001 21.9999C26.5305 21.4695 26.8285 20.7501 26.8285 19.9999C26.8285 19.2498 26.5305 18.5304 26.0001 17.9999L20.8267 12.8266C20.0767 12.0775 19.0601 11.6568 18.0001 11.6568C16.9401 11.6568 15.9234 12.0775 15.1734 12.8266L14.0001 13.9999C13.4696 14.5304 12.7502 14.8284 12.0001 14.8284C11.2499 14.8284 10.5305 14.5304 10.0001 13.9999C9.46962 13.4695 9.17163 12.7501 9.17163 11.9999C9.17163 11.2498 9.46962 10.5304 10.0001 9.99994L13.7467 6.25327C14.963 5.04013 16.5493 4.26734 18.2542 4.05724C19.9592 3.84713 21.6856 4.21171 23.1601 5.09327L23.7867 5.46661C24.3544 5.80925 25.0295 5.92809 25.6801 5.79994L28.0001 5.33327" stroke="#3AB769" stroke-width="1.5" stroke-linecap="round" stroke-linejoin="round"/>
<path d="M28 4L29.3333 18.6667H26.6666" stroke="#3AB769" stroke-width="1.5" stroke-linecap="round" stroke-linejoin="round"/>
<path d="M3.99996 4L2.66663 18.6667L11.3333 27.3333C11.8637 27.8638 12.5831 28.1618 13.3333 28.1618C14.0834 28.1618 14.8029 27.8638 15.3333 27.3333C15.8637 26.8029 16.1617 26.0835 16.1617 25.3333C16.1617 24.5832 15.8637 23.8638 15.3333 23.3333" stroke="#3AB769" stroke-width="1.5" stroke-linecap="round" stroke-linejoin="round"/>
<path d="M4 5.33325H14.6667" stroke="#3AB769" stroke-width="1.5" stroke-linecap="round" stroke-linejoin="round"/>
</svg>
