<svg width="32" height="32" viewBox="0 0 32 32" fill="none" xmlns="http://www.w3.org/2000/svg">
<path d="M28.7913 17.6326C28.4642 17.3805 28.0894 17.1977 27.6894 17.0952C27.2895 16.9927 26.8729 16.9727 26.465 17.0363C28.8125 14.6663 30 12.3101 30 10.0001C30 6.69131 27.3387 4.00006 24.0675 4.00006C23.1995 3.99461 22.3408 4.17921 21.5518 4.54092C20.7627 4.90262 20.0624 5.43265 19.5 6.09381C18.9376 5.43265 18.2373 4.90262 17.4482 4.54092C16.6592 4.17921 15.8005 3.99461 14.9325 4.00006C11.6613 4.00006 9 6.69131 9 10.0001C9 11.3751 9.405 12.7113 10.2575 14.1251C9.5593 14.3019 8.92211 14.6648 8.41375 15.1751L5.58625 18.0001H2C1.46957 18.0001 0.960859 18.2108 0.585786 18.5858C0.210714 18.9609 0 19.4696 0 20.0001L0 25.0001C0 25.5305 0.210714 26.0392 0.585786 26.4143C0.960859 26.7893 1.46957 27.0001 2 27.0001H15C15.0818 27.0001 15.1632 26.99 15.2425 26.9701L23.2425 24.9701C23.2935 24.9579 23.3433 24.9412 23.3913 24.9201L28.25 22.8526L28.305 22.8276C28.772 22.5942 29.1718 22.2458 29.4669 21.8153C29.7621 21.3847 29.9427 20.886 29.9918 20.3663C30.041 19.8466 29.957 19.323 29.7478 18.8447C29.5387 18.3664 29.2112 17.9493 28.7962 17.6326H28.7913ZM14.9325 6.00006C15.707 5.98872 16.4673 6.20865 17.1162 6.63172C17.765 7.05479 18.273 7.66177 18.575 8.37506C18.6503 8.55847 18.7785 8.71534 18.9432 8.82574C19.1079 8.93614 19.3017 8.99509 19.5 8.99509C19.6983 8.99509 19.8921 8.93614 20.0568 8.82574C20.2215 8.71534 20.3497 8.55847 20.425 8.37506C20.727 7.66177 21.235 7.05479 21.8838 6.63172C22.5327 6.20865 23.293 5.98872 24.0675 6.00006C26.1987 6.00006 28 7.83131 28 10.0001C28 12.4388 26.0262 15.1976 22.2925 17.9876L20.9062 18.3063C21.0279 17.7923 21.0317 17.2574 20.9172 16.7417C20.8028 16.2261 20.5731 15.743 20.2454 15.3287C19.9177 14.9144 19.5005 14.5797 19.0251 14.3496C18.5496 14.1195 18.0282 14 17.5 14.0001H12.585C11.5063 12.5451 11 11.2651 11 10.0001C11 7.83131 12.8013 6.00006 14.9325 6.00006ZM2 20.0001H5V25.0001H2V20.0001ZM27.4287 21.0263L22.6787 23.0488L14.875 25.0001H7V19.4138L9.82875 16.5863C10.0138 16.3998 10.2341 16.2519 10.4768 16.1513C10.7195 16.0506 10.9798 15.9992 11.2425 16.0001H17.5C17.8978 16.0001 18.2794 16.1581 18.5607 16.4394C18.842 16.7207 19 17.1022 19 17.5001C19 17.8979 18.842 18.2794 18.5607 18.5607C18.2794 18.842 17.8978 19.0001 17.5 19.0001H14C13.7348 19.0001 13.4804 19.1054 13.2929 19.2929C13.1054 19.4805 13 19.7348 13 20.0001C13 20.2653 13.1054 20.5196 13.2929 20.7072C13.4804 20.8947 13.7348 21.0001 14 21.0001H18C18.0753 20.9998 18.1503 20.9915 18.2237 20.9751L26.5987 19.0488L26.6375 19.0388C26.8932 18.9678 27.166 18.9939 27.4036 19.112C27.6412 19.2302 27.8267 19.432 27.9245 19.6786C28.0222 19.9253 28.0253 20.1994 27.9331 20.4482C27.8409 20.697 27.6599 20.9029 27.425 21.0263H27.4287Z" fill="#147137"/>
</svg>
