<svg width="32" height="32" viewBox="0 0 32 32" fill="none" xmlns="http://www.w3.org/2000/svg">
<path d="M31 26H30V16C30 15.4696 29.7893 14.9609 29.4142 14.5858C29.0391 14.2107 28.5304 14 28 14H21V6C21 5.46957 20.7893 4.96086 20.4142 4.58579C20.0391 4.21071 19.5304 4 19 4H7C6.46957 4 5.96086 4.21071 5.58579 4.58579C5.21071 4.96086 5 5.46957 5 6V26H4C3.73478 26 3.48043 26.1054 3.29289 26.2929C3.10536 26.4804 3 26.7348 3 27C3 27.2652 3.10536 27.5196 3.29289 27.7071C3.48043 27.8946 3.73478 28 4 28H31C31.2652 28 31.5196 27.8946 31.7071 27.7071C31.8946 27.5196 32 27.2652 32 27C32 26.7348 31.8946 26.4804 31.7071 26.2929C31.5196 26.1054 31.2652 26 31 26ZM28 16V26H21V16H28ZM7 6H19V26H17V20C17 19.7348 16.8946 19.4804 16.7071 19.2929C16.5196 19.1054 16.2652 19 16 19H10C9.73478 19 9.48043 19.1054 9.29289 19.2929C9.10536 19.4804 9 19.7348 9 20V26H7V6ZM15 26H11V21H15V26ZM9 12C9 11.7348 9.10536 11.4804 9.29289 11.2929C9.48043 11.1054 9.73478 11 10 11H12V9C12 8.73478 12.1054 8.48043 12.2929 8.29289C12.4804 8.10536 12.7348 8 13 8C13.2652 8 13.5196 8.10536 13.7071 8.29289C13.8946 8.48043 14 8.73478 14 9V11H16C16.2652 11 16.5196 11.1054 16.7071 11.2929C16.8946 11.4804 17 11.7348 17 12C17 12.2652 16.8946 12.5196 16.7071 12.7071C16.5196 12.8946 16.2652 13 16 13H14V15C14 15.2652 13.8946 15.5196 13.7071 15.7071C13.5196 15.8946 13.2652 16 13 16C12.7348 16 12.4804 15.8946 12.2929 15.7071C12.1054 15.5196 12 15.2652 12 15V13H10C9.73478 13 9.48043 12.8946 9.29289 12.7071C9.10536 12.5196 9 12.2652 9 12Z" fill="#147137"/>
</svg>
