<svg width="32" height="32" viewBox="0 0 32 32" fill="none" xmlns="http://www.w3.org/2000/svg">
<path d="M20 2.66675H7.99999C7.29275 2.66675 6.61447 2.9477 6.11438 3.4478C5.61428 3.94789 5.33333 4.62617 5.33333 5.33341V26.6667C5.33333 27.374 5.61428 28.0523 6.11438 28.5524C6.61447 29.0525 7.29275 29.3334 7.99999 29.3334H24C24.7072 29.3334 25.3855 29.0525 25.8856 28.5524C26.3857 28.0523 26.6667 27.374 26.6667 26.6667V9.33341L20 2.66675Z" stroke="#3AB769" stroke-width="1.5" stroke-linecap="round" stroke-linejoin="round"/>
<path d="M18.6667 2.66675V8.00008C18.6667 8.70733 18.9476 9.3856 19.4477 9.8857C19.9478 10.3858 20.6261 10.6667 21.3333 10.6667H26.6667" stroke="#3AB769" stroke-width="1.5" stroke-linecap="round" stroke-linejoin="round"/>
<path d="M10.6667 24.0001V22.6667" stroke="#3AB769" stroke-width="1.5" stroke-linecap="round" stroke-linejoin="round"/>
<path d="M16 24V16" stroke="#3AB769" stroke-width="1.5" stroke-linecap="round" stroke-linejoin="round"/>
<path d="M21.3333 24V20" stroke="#3AB769" stroke-width="1.5" stroke-linecap="round" stroke-linejoin="round"/>
</svg>
