<svg width="32" height="32" viewBox="0 0 32 32" fill="none" xmlns="http://www.w3.org/2000/svg">
<path d="M25.3333 4L26.6666 5.33333L25.3333 4Z" fill="#3AB769"/>
<path d="M25.3333 4L26.6666 5.33333" stroke="#3AB769" stroke-width="1.5" stroke-linecap="round" stroke-linejoin="round"/>
<path d="M26.6667 2.66675L20.6667 8.66675" stroke="#3AB769" stroke-width="1.5" stroke-linecap="round" stroke-linejoin="round"/>
<path d="M26.6666 10.5308V28.0001C26.6666 28.3537 26.5262 28.6929 26.2761 28.9429C26.0261 29.193 25.6869 29.3334 25.3333 29.3334H8.66665C7.78259 29.3334 6.93474 28.9822 6.30962 28.3571C5.6845 27.732 5.33331 26.8841 5.33331 26.0001C5.33331 25.116 5.6845 24.2682 6.30962 23.6431C6.93474 23.018 7.78259 22.6668 8.66665 22.6668H26.6666" stroke="#3AB769" stroke-width="1.5" stroke-linecap="round" stroke-linejoin="round"/>
<path d="M5.33331 26.0001V6.00008C5.33331 5.11603 5.6845 4.26818 6.30962 3.64306C6.93474 3.01794 7.78259 2.66675 8.66665 2.66675H19.1253" stroke="#3AB769" stroke-width="1.5" stroke-linecap="round" stroke-linejoin="round"/>
<path d="M18.6667 13.3333C20.1394 13.3333 21.3333 12.1394 21.3333 10.6667C21.3333 9.19391 20.1394 8 18.6667 8C17.1939 8 16 9.19391 16 10.6667C16 12.1394 17.1939 13.3333 18.6667 13.3333Z" stroke="#3AB769" stroke-width="1.5" stroke-linecap="round" stroke-linejoin="round"/>
</svg>
